<?xml version="1.0" encoding="UTF-8"?>
<svg width="752pt" height="752pt" version="1.1" viewBox="0 0 752 752" xmlns="http://www.w3.org/2000/svg">
 <path d="m279.38 319.56 0.64844-64.77v-0.125c1.4141-28.203 12.816-53.059 29.938-70.957 17.57-18.367 41.172-29.41 66.199-29.234 25.027-0.17188 48.621 10.867 66.199 29.234 17.121 17.895 28.523 42.758 29.938 70.957 0.007812 0.085938 0.007812 0.17188 0 0.26172 0.43359 43.531 0.43359 85.922 0 129.45v0.125c-1.4141 28.203-12.816 53.059-29.938 70.957-17.57 18.367-41.172 29.41-66.199 29.234-25.027 0.17188-48.621-10.867-66.199-29.234-17.121-17.895-28.523-42.758-29.938-70.957-0.007812-0.085937-0.007812-0.17188 0-0.26172l-0.64062-64.684zm147.83 182.81c1.2305-1.2305 3.2266-1.2305 4.4688 0 1.2305 1.2305 1.2305 3.2266 0 4.4688l-53.23 53.23c-1.2305 1.2305-3.2266 1.2305-4.4688 0l-53.23-53.23c-1.2305-1.2305-1.2305-3.2266 0-4.4688 1.2305-1.2305 3.2266-1.2305 4.4688 0l50.996 50.996zm0 36.543c1.2305-1.2305 3.2266-1.2305 4.4688 0 1.2305 1.2305 1.2305 3.2266 0 4.4688l-53.23 53.23c-1.2305 1.2305-3.2266 1.2305-4.4688 0l-53.23-53.23c-1.2305-1.2305-1.2305-3.2266 0-4.4688 1.2305-1.2305 3.2266-1.2305 4.4688 0l50.996 50.996zm-72.164-294.35 0.125-12.43v-0.125c0.30078-6.0469 2.7617-11.398 6.457-15.25 3.8438-4.0156 9.0234-6.4336 14.539-6.4023 5.5156-0.03125 10.695 2.3828 14.539 6.4023 3.6953 3.8594 6.1484 9.2031 6.457 15.25 0.007813 0.085938 0.007813 0.17188 0 0.26172 0.085938 8.3281 0.078126 16.441 0 24.777v0.125c-0.30078 6.0469-2.7617 11.398-6.457 15.25-3.8438 4.0156-9.0234 6.4336-14.539 6.4023-5.5156 0.03125-10.695-2.3828-14.539-6.4023-3.6953-3.8594-6.1484-9.2031-6.457-15.25-0.007813-0.085937-0.007813-0.17188 0-0.26172l-0.11719-12.344zm6.4102-12.258-0.11719 12.281 0.11719 12.258v0.023438c0.22266 4.4766 2.0117 8.3984 4.7031 11.207 2.6758 2.793 6.2344 4.4766 9.9844 4.4531h0.023438c3.75 0.023437 7.3164-1.6562 9.9844-4.4531 2.6836-2.8086 4.4766-6.7344 4.7031-11.207l0.11719-12.281-0.11719-12.258v-0.023437c-0.22266-4.4766-2.0117-8.3984-4.7031-11.207-2.6758-2.793-6.2344-4.4766-9.9844-4.4531h-0.023438c-3.75-0.023437-7.3164 1.6562-9.9844 4.4531-2.6836 2.8086-4.4766 6.7344-4.7031 11.207zm-75.141 22.66-0.64062 64.621 0.64062 64.598v0.023437c1.332 26.625 12.07 50.066 28.188 66.91 16.402 17.145 38.383 27.453 61.645 27.285h0.023437c23.27 0.16406 45.242-10.141 61.645-27.285 16.117-16.844 26.852-40.285 28.188-66.91l0.64062-64.621-0.64062-64.598v-0.023437c-1.332-26.625-12.07-50.066-28.188-66.91-16.402-17.145-38.383-27.453-61.645-27.285h-0.023437c-23.27-0.16406-45.242 10.141-61.645 27.285-16.117 16.844-26.852 40.285-28.188 66.91z"/>
</svg>
